<?xml version="1.0" encoding="UTF-8"?>
<svg xmlns="http://www.w3.org/2000/svg" viewBox="0 0 50 50">
  <defs>
    <style>
      .cls-1 {
        fill: #fff;
      }

      .cls-2 {
        fill: #1a1a1a;
      }
    </style>
  </defs>
  <g id="Layer_7" data-name="Layer 7">
    <polygon class="cls-1" points="42.5 36.22 36.22 42.5 23.41 29.69 17.51 38.94 7.5 7.5 38.94 17.5 29.69 23.41 42.5 36.22"/>
  </g>
  <g id="Layer_4" data-name="Layer 4">
    <path class="cls-2" d="M36.22,43.75c-.32,0-.64-.12-.88-.37l-11.71-11.71-5.07,7.94c-.26.41-.73.63-1.22.57-.48-.06-.88-.4-1.03-.86L6.31,7.88c-.14-.45-.02-.93.31-1.26.33-.33.82-.45,1.26-.31l31.44,10.01c.46.15.8.55.86,1.03.06.48-.16.95-.57,1.22l-7.94,5.07,11.71,11.71c.23.23.37.55.37.88s-.13.65-.37.88l-6.28,6.28c-.24.24-.56.37-.88.37ZM23.41,28.44c.33,0,.65.13.88.37l11.93,11.93,4.51-4.51-11.93-11.93c-.27-.27-.4-.64-.36-1.02.04-.38.25-.71.57-.92l7-4.47L9.43,9.42l8.46,26.6,4.47-7c.2-.32.54-.53.92-.57.05,0,.09,0,.14,0Z"/>
  </g>
</svg>