<?xml version="1.0" encoding="UTF-8"?>
<svg xmlns="http://www.w3.org/2000/svg" viewBox="0 0 50 50">
  <defs>
    <style>
      .cls-1 {
        fill: #fff;
      }

      .cls-2 {
        fill: #1a1a1a;
      }
    </style>
  </defs>
  <g id="Layer_7" data-name="Layer 7">
    <path class="cls-1" d="M35.4,24.61c0-.98.4-1.86,1.04-2.51.64-.64,1.53-1.04,2.51-1.04,1.96,0,3.55,1.59,3.55,3.55v10.21c0,6.92-5.61,12.54-12.54,12.54h-6.64c-3.72,0-7.25-1.63-9.66-4.47l-4.57-5.38c-2.28-2.68-2.11-6.66.37-9.14l4.66-4.66V6.19c0-.98.4-1.87,1.04-2.51.64-.64,1.53-1.04,2.51-1.04,1.96,0,3.55,1.59,3.55,3.55v12.26c.05-1.91,1.61-3.45,3.55-3.45.98,0,1.86.4,2.51,1.04.64.64,1.04,1.53,1.04,2.51v3.07c0-1.96,1.59-3.55,3.55-3.55.98,0,1.86.4,2.51,1.04.64.64,1.04,1.53,1.04,2.51v3.01Z"/>
  </g>
  <g id="Layer_4" data-name="Layer 4">
    <path class="cls-2" d="M19.97,18.39v.19s0-.03,0-.04c0-.05,0-.1,0-.15Z"/>
    <path class="cls-2" d="M38.95,19.81c-.87,0-1.7.23-2.43.66-.2-.85-.64-1.63-1.27-2.26-.91-.91-2.11-1.4-3.39-1.4-.88,0-1.71.24-2.41.65-.2-.87-.64-1.67-1.29-2.32-.91-.9-2.11-1.4-3.39-1.4-.83,0-1.62.21-2.3.57V6.19c0-2.65-2.15-4.79-4.8-4.79-1.28,0-2.48.5-3.39,1.4-.9.91-1.4,2.11-1.4,3.39v17l-4.3,4.3c-2.93,2.93-3.12,7.69-.44,10.84l4.57,5.38c2.65,3.12,6.52,4.91,10.61,4.91h6.64c7.6,0,13.79-6.19,13.79-13.79v-10.21c0-2.65-2.15-4.79-4.8-4.79ZM41.25,34.82c0,6.22-5.06,11.29-11.29,11.29h-6.64c-3.36,0-6.54-1.47-8.71-4.03l-4.57-5.38c-1.84-2.16-1.71-5.44.3-7.45l2.53-2.53v5.75c0,.69.56,1.25,1.25,1.25s1.25-.56,1.25-1.25V6.19c0-.61.24-1.19.67-1.62.43-.43,1.01-.67,1.62-.67,1.27,0,2.3,1.03,2.3,2.29v16.91c0,.69.56,1.25,1.25,1.25s1.25-.56,1.25-1.25v-4.62c.03-1.23,1.06-2.24,2.3-2.24.61,0,1.19.24,1.62.67.43.43.67,1.01.67,1.62v6.85c0,.69.56,1.25,1.25,1.25s1.25-.56,1.25-1.25v-3.78c0-1.26,1.03-2.29,2.29-2.29.61,0,1.19.24,1.62.67.43.43.67,1.01.67,1.62v5.99c0,.69.56,1.25,1.25,1.25s1.25-.56,1.25-1.25v-2.98c0-.61.24-1.19.67-1.62.43-.43,1.01-.67,1.62-.67,1.27,0,2.3,1.03,2.3,2.29v10.21Z"/>
  </g>
</svg>