<?xml version="1.0" encoding="UTF-8"?>
<svg id="Layer_6" data-name="Layer 6" xmlns="http://www.w3.org/2000/svg" viewBox="0 0 50 50">
  <defs>
    <style>
      .cls-1 {
        fill: #fff;
      }

      .cls-2 {
        fill: #1a1a1a;
      }
    </style>
  </defs>
  <path class="cls-1" d="M20.33,7.77c6.93,0,12.58,5.64,12.58,12.58s-5.65,12.58-12.58,12.58-12.58-5.65-12.58-12.58,5.64-12.58,12.58-12.58ZM28.69,20.35c0-.7-.56-1.25-1.25-1.25h-5.86v-5.87c0-.69-.56-1.25-1.25-1.25s-1.25.56-1.25,1.25v5.87h-5.87c-.69,0-1.25.55-1.25,1.25s.56,1.25,1.25,1.25h5.87v5.86c0,.69.56,1.25,1.25,1.25s1.25-.56,1.25-1.25v-5.86h5.86c.69,0,1.25-.56,1.25-1.25Z"/>
  <path class="cls-2" d="M21.58,19.1h5.86c.69,0,1.25.55,1.25,1.25s-.56,1.25-1.25,1.25h-5.86v5.86c0,.69-.56,1.25-1.25,1.25s-1.25-.56-1.25-1.25v-5.86h-5.87c-.69,0-1.25-.56-1.25-1.25s.56-1.25,1.25-1.25h5.87v-5.87c0-.69.56-1.25,1.25-1.25s1.25.56,1.25,1.25v5.87Z"/>
  <path class="cls-2" d="M32.91,20.35c0-6.94-5.65-12.58-12.58-12.58s-12.58,5.64-12.58,12.58,5.64,12.58,12.58,12.58,12.58-5.65,12.58-12.58ZM44.38,42.6c.49.48.49,1.28,0,1.76-.24.25-.56.37-.88.37s-.64-.12-.89-.37l-12.52-12.52c-2.63,2.24-6.05,3.59-9.76,3.59-8.32,0-15.08-6.77-15.08-15.08s6.76-15.08,15.08-15.08,15.08,6.76,15.08,15.08c0,3.7-1.34,7.09-3.56,9.72l12.53,12.53Z"/>
</svg>