<?xml version="1.0" encoding="UTF-8"?>
<svg xmlns="http://www.w3.org/2000/svg" viewBox="0 0 120 120">
  <defs>
    <style>
      .cls-1 {
        fill: #fff;
      }

      .cls-2 {
        fill: #1a1a1a;
      }
    </style>
  </defs>
  <g id="Layer_7" data-name="Layer 7">
    <polygon class="cls-1" points="95 82.44 82.44 95 56.82 69.38 45.01 87.88 25 24.99 87.88 45.01 69.38 56.81 95 82.44"/>
  </g>
  <g id="Layer_4" data-name="Layer 4">
    <path class="cls-2" d="M82.44,97.5c-.64,0-1.28-.24-1.77-.73l-23.42-23.42-10.14,15.88c-.52.82-1.47,1.26-2.43,1.13-.96-.13-1.76-.8-2.06-1.72L22.62,25.75c-.28-.89-.05-1.86.61-2.53.66-.66,1.64-.9,2.53-.61l62.88,20.02c.92.29,1.59,1.1,1.72,2.06.13.96-.32,1.91-1.13,2.43l-15.88,10.13,23.42,23.42c.47.47.73,1.1.73,1.77s-.26,1.3-.73,1.77l-12.56,12.56c-.49.49-1.13.73-1.77.73ZM56.82,66.88c.66,0,1.3.26,1.77.73l23.85,23.85,9.03-9.03-23.86-23.86c-.54-.54-.8-1.29-.72-2.04.08-.75.5-1.43,1.14-1.84l14-8.93L28.85,28.84l16.92,53.2,8.94-14.01c.41-.64,1.08-1.06,1.84-1.14.09,0,.18-.01.27-.01Z"/>
  </g>
</svg>