<?xml version="1.0" encoding="UTF-8"?>
<svg xmlns="http://www.w3.org/2000/svg" viewBox="0 0 120 120">
  <defs>
    <style>
      .cls-1 {
        fill: #fff;
      }

      .cls-2 {
        fill: #1a1a1a;
      }
    </style>
  </defs>
  <g id="Layer_7" data-name="Layer 7">
    <path class="cls-1" d="M80.81,59.22c0-1.96.8-3.73,2.08-5.01,1.28-1.28,3.05-2.08,5.01-2.08,3.91,0,7.09,3.18,7.09,7.09v20.41c0,13.85-11.22,25.07-25.07,25.07h-13.27c-7.44,0-14.51-3.27-19.32-8.94l-9.14-10.75c-4.56-5.35-4.23-13.31.74-18.28l9.33-9.32V22.38c0-1.95.8-3.73,2.07-5.02,1.28-1.28,3.06-2.07,5.02-2.07,3.92,0,7.1,3.17,7.1,7.09v24.52c.09-3.83,3.23-6.91,7.09-6.91,1.95,0,3.73.8,5.01,2.08,1.28,1.28,2.08,3.06,2.08,5.01v6.14c0-3.91,3.17-7.09,7.09-7.09,1.95,0,3.73.8,5.01,2.08,1.28,1.28,2.08,3.05,2.08,5.01v6.01Z"/>
  </g>
  <g id="Layer_4" data-name="Layer 4">
    <path class="cls-2" d="M49.94,46.78v.39s0-.05,0-.08c0-.1,0-.2,0-.3Z"/>
    <path class="cls-2" d="M87.9,49.63c-1.73,0-3.4.46-4.86,1.32-.4-1.7-1.28-3.26-2.54-4.52-1.82-1.81-4.23-2.81-6.78-2.81-1.76,0-3.42.48-4.83,1.31-.4-1.74-1.28-3.34-2.57-4.64-1.81-1.81-4.22-2.8-6.78-2.8-1.66,0-3.23.41-4.59,1.15v-16.26c0-5.29-4.3-9.59-9.59-9.59-2.55,0-4.96.99-6.79,2.81-1.81,1.82-2.8,4.23-2.8,6.78v33.99l-8.59,8.6c-5.85,5.86-6.24,15.38-.88,21.68l9.13,10.75c5.3,6.23,13.04,9.82,21.23,9.82h13.27c15.21,0,27.58-12.37,27.58-27.57v-20.42c0-5.29-4.31-9.59-9.6-9.59ZM92.49,79.64c0,12.45-10.12,22.57-22.58,22.57h-13.27c-6.72,0-13.07-2.93-17.41-8.06l-9.14-10.75c-3.68-4.33-3.42-10.88.6-14.89l5.06-5.05v11.51c0,1.38,1.12,2.5,2.5,2.5s2.5-1.12,2.5-2.5V22.38c0-1.23.48-2.38,1.34-3.24.87-.86,2.03-1.35,3.25-1.35,2.54,0,4.59,2.06,4.59,4.59v33.82c0,1.38,1.12,2.5,2.5,2.5s2.5-1.12,2.5-2.5v-9.23c.06-2.47,2.12-4.47,4.59-4.47,1.23,0,2.38.48,3.24,1.34.86.87,1.35,2.02,1.35,3.25v13.7c0,1.38,1.12,2.5,2.5,2.5s2.5-1.12,2.5-2.5v-7.57c0-2.53,2.06-4.59,4.59-4.59,1.22,0,2.38.48,3.24,1.35.87.87,1.35,2.02,1.35,3.24v11.97c0,1.38,1.12,2.5,2.5,2.5s2.5-1.12,2.5-2.5v-5.96c0-1.23.48-2.38,1.34-3.24.87-.86,2.02-1.35,3.25-1.35,2.53,0,4.6,2.06,4.6,4.59v20.42Z"/>
  </g>
</svg>